#!OML:ASF E:\Style6\Style6.ASF
:FULLY-SPECIFIED
:DEGREES
2917
root -0.120616 18.3259 0.523556 16.9779 3.9676 0.176729
lowerback 9.59042 -0.156636 2.73529
upperback -0.448968 0.361244 4.27314
thorax -5.87713 0.163654 2.89009
lowerneck -3.67677 -1.87114 1.14057
upperneck -21.9063 -3.84543 -6.97196
head -6.17922 -1.51328 -2.26416
rclavicle -6.36111e-015 -3.33958e-014
rhumerus 32.0536 22.3844 22.5292
rradius 125.117
rwrist -22.1724
rhand 0.565406 11.8649
rfingers 7.12502
rthumb 26.1318 -16.357
lclavicle -6.36111e-015 -3.33958e-014
lhumerus 56.1084 24.7339 0.252402
lradius 56.1301
lwrist 33.0687
lhand -11.0719 18.342
lfingers 7.12502
lthumb 14.9512 47.7824
rfemur -25.0044 5.29212 18.6886
rtibia 19.732
rfoot -10.9108 -20.1403
rtoes 15.8256
lfemur -20.3575 -8.45032 -13.4317
ltibia 12.6551
lfoot -2.31377 11.0554
ltoes -0.835157
2918
root -0.11793 18.3324 0.527707 17.0383 4.11309 0.158022
lowerback 9.58274 -0.173385 2.81594
upperback -0.485126 0.352093 4.31022
thorax -5.91075 0.15729 2.8857
lowerneck -3.53929 -1.85274 1.17862
upperneck -22.0198 -3.83839 -7.03221
head -6.24002 -1.50299 -2.28976
rclavicle 6.75868e-015 -2.22639e-014
rhumerus 31.7945 21.9807 22.2378
rradius 125.337
rwrist -22.059
rhand 0.819962 11.8169
rfingers 7.12502
rthumb 26.3755 -16.3686
lclavicle 6.75868e-015 -2.22639e-014
lhumerus 55.8873 24.2719 -0.259257
lradius 56.4143
lwrist 33.5512
lhand -10.7391 18.44
lfingers 7.12502
lthumb 15.2718 47.8562
rfemur -24.998 5.54607 18.6325
rtibia 19.6714
rfoot -11.1032 -20.4466
rtoes 16.0145
lfemur -20.2301 -8.79153 -13.3266
ltibia 12.2627
lfoot -2.01156 11.3122
ltoes -1.85076
2919
root -0.11539 18.3386 0.531462 17.1157 4.272 0.0890742
lowerback 9.57587 -0.188296 2.94444
upperback -0.535928 0.35374 4.37882
thorax -5.96081 0.15521 2.88642
lowerneck -3.38072 -1.85642 1.17371
upperneck -22.1699 -3.87212 -7.12332
head -6.31819 -1.50578 -2.31632
rclavicle 9.14409e-015 9.54166e-015
rhumerus 31.5373 21.5502 21.9827
rradius 125.514
rwrist -21.9486
rhand 0.944096 11.9161
rfingers 7.12502
rthumb 26.4943 -16.2516
lclavicle 9.14409e-015 9.54166e-015
lhumerus 55.7376 23.8054 -0.669116
lradius 56.6622
lwrist 33.822
lhand -10.433 18.5125
lfingers 7.12502
lthumb 15.5667 47.9061
rfemur -24.9942 5.85014 18.6115
rtibia 19.5813
rfoot -11.3536 -20.7343
rtoes 16.6334
lfemur -20.1189 -9.14092 -13.1425
ltibia 11.8668
lfoot -1.76786 11.5533
ltoes -2.35377
2920
root -0.112693 18.3441 0.536351 17.1977 4.36649 0.125368
lowerback 9.51255 -0.186691 2.95554
upperback -0.53056 0.354535 4.40133
thorax -5.91945 0.155791 2.90299
lowerneck -3.31379 -1.87628 1.2263
upperneck -22.3166 -3.92962 -7.23311
head -6.38213 -1.52552 -2.35879
rclavicle 2.10712e-014 -9.54166e-015
rhumerus 31.2321 20.9803 21.6336
rradius 125.606
rwrist -21.8038
rhand 1.03366 12.1165
rfingers 7.12502
rthumb 26.5801 -16.0383
lclavicle 2.10712e-014 -9.54166e-015
lhumerus 55.5535 23.3875 -1.14938
lradius 56.9468
lwrist 33.9668
lhand -10.1304 18.5215
lfingers 7.12502
lthumb 15.858 47.8921
rfemur -24.9816 6.1417 18.4673
rtibia 19.4785
rfoot -11.4953 -20.9962
rtoes 16.9726
lfemur -19.9945 -9.53388 -13.0603
ltibia 11.474
lfoot -1.71382 11.8304
ltoes -1.33491
2921
root -0.110109 18.3508 0.541897 17.2118 4.4103 0.196244
lowerback 9.50615 -0.183452 2.9145
upperback -0.509036 0.35331 4.41219
thorax -5.89332 0.156748 2.93735
lowerneck -3.37185 -1.90595 1.20384
upperneck -22.2653 -3.96678 -7.23041
head -6.35715 -1.54451 -2.35258
rclavicle -3.57812e-015 3.02153e-014
rhumerus 30.9235 20.3365 21.2696
rradius 125.69
rwrist -21.6862
rhand 1.24807 12.3923
rfingers 7.12502
rthumb 26.7853 -15.7312
lclavicle -3.57812e-015 3.02153e-014
lhumerus 55.3222 22.9178 -1.71031
lradius 57.2761
lwrist 34.226
lhand -10.0309 18.6427
lfingers 7.12502
lthumb 15.9539 48.0057
rfemur -24.9211 6.37711 18.3017
rtibia 19.4163
rfoot -11.7062 -21.1318
rtoes 17.7649
lfemur -19.7763 -10.0154 -13.0065
ltibia 11.0387
lfoot -1.84027 12.2431
ltoes 1.01039
2922
root -0.108183 18.3546 0.545517 17.2046 4.4511 0.240336
lowerback 9.54767 -0.179408 2.87523
upperback -0.494 0.357407 4.43658
thorax -5.90153 0.16041 2.98498
lowerneck -3.36397 -1.92062 1.15723
upperneck -22.2788 -3.98499 -7.20736
head -6.36276 -1.55074 -2.33633
rclavicle 3.97569e-015 -9.54166e-015
rhumerus 30.6095 19.6458 20.8933
rradius 125.793
rwrist -21.6169
rhand 1.65569 12.6433
rfingers 7.12502
rthumb 27.1753 -15.4199
lclavicle 3.97569e-015 -9.54166e-015
lhumerus 55.064 22.4023 -2.36203
lradius 57.6226
lwrist 34.6788
lhand -10.1609 18.7039
lfingers 7.12502
lthumb 15.8287 48.0768
rfemur -24.8692 6.53951 18.1984
rtibia 19.3817
rfoot -11.9296 -21.2109
rtoes 18.5568
lfemur -19.5522 -10.3283 -12.9634
ltibia 10.6167
lfoot -1.85206 12.4762
ltoes 2.33683
2923
root -0.105746 18.3575 0.549463 17.2534 4.47205 0.326254
lowerback 9.55357 -0.172288 2.80451
upperback -0.504838 0.359781 4.43634
thorax -5.91674 0.16377 3.02456
lowerneck -3.2116 -1.92398 1.19368
upperneck -22.4584 -4.01152 -7.25303
head -6.44935 -1.5558 -2.35591
rclavicle 9.54166e-015 -4.77083e-015
rhumerus 30.3242 18.931 20.4896
rradius 125.849
rwrist -21.4819
rhand 1.9275 12.8873
rfingers 7.12502
rthumb 27.4352 -15.1349
lclavicle 9.54166e-015 -4.77083e-015
lhumerus 54.7659 21.8663 -3.06148
lradius 58.0388
lwrist 35.1668
lhand -10.2671 18.7148
lfingers 7.12502
lthumb 15.7264 48.0958
rfemur -24.8924 6.70366 18.0352
rtibia 19.3713
rfoot -12.1087 -21.3312
rtoes 19.0889
lfemur -19.385 -10.4775 -13.0304
ltibia 10.2367
lfoot -1.47901 12.5686
ltoes 0.727363
2924
root -0.102677 18.3594 0.553806 17.3649 4.55207 0.323184
lowerback 9.4792 -0.187405 2.84894
upperback -0.5485 0.344278 4.45974
thorax -5.9203 0.155207 3.02641
lowerneck -2.9443 -1.9277 1.1845
upperneck -22.7217 -4.03645 -7.24161
head -6.58141 -1.55584 -2.34864
rclavicle 1.19271e-014 4.29375e-014
rhumerus 30.1192 18.1654 20.0982
rradius 125.829
rwrist -21.2564
rhand 2.0345 13.0607
rfingers 7.12502
rthumb 27.5376 -14.9452
lclavicle 1.19271e-014 4.29375e-014
lhumerus 54.4526 21.3063 -3.78143
lradius 58.4788
lwrist 35.6558
lhand -10.1918 18.7501
lfingers 7.12502
lthumb 15.7989 48.1254
rfemur -24.9795 6.8545 17.9767
rtibia 19.3647
rfoot -12.2472 -21.4836
rtoes 19.402
lfemur -19.3446 -10.5285 -13.0027
ltibia 9.94778
lfoot -1.17953 12.5378
ltoes -0.686965
2925
root -0.0991486 18.3612 0.557102 17.4226 4.60928 0.35894
lowerback 9.49331 -0.205778 2.80958
upperback -0.584086 0.32056 4.49776
thorax -5.96574 0.14543 3.09324
lowerneck -2.82675 -1.92101 1.18547
upperneck -22.8134 -4.04493 -7.2912
head -6.63263 -1.55186 -2.36402
rclavicle 1.39149e-014 -5.24792e-014
rhumerus 29.9778 17.3851 19.7605
rradius 125.745
rwrist -20.7476
rhand 1.71356 13.1356
rfingers 7.12502
rthumb 27.2306 -14.9188
lclavicle 1.39149e-014 -5.24792e-014
lhumerus 54.1087 20.7325 -4.44815
lradius 58.9559
lwrist 36.0176
lhand -10.0731 18.8844
lfingers 7.12502
lthumb 15.9133 48.2506
rfemur -25.0098 6.91456 17.9071
rtibia 19.3569
rfoot -12.1604 -21.6529
rtoes 18.812
lfemur -19.2961 -10.5779 -13.034
ltibia 9.7616
lfoot -1.06279 12.4994
ltoes -0.789361
2926
root -0.0964619 18.361 0.560484 17.4559 4.64629 0.38883
lowerback 9.51122 -0.214982 2.75764
upperback -0.5897 0.305869 4.53146
thorax -5.98188 0.140462 3.16079
lowerneck -2.80629 -1.91137 1.25364
upperneck -22.8409 -4.0562 -7.41737
head -6.64867 -1.5529 -2.41634
rclavicle 2.10712e-014 -3.65764e-014
rhumerus 29.7634 16.5075 19.3993
rradius 125.678
rwrist -20.2074
rhand 1.24292 13.0996
rfingers 7.12502
rthumb 26.7803 -15.0247
lclavicle 2.10712e-014 -3.65764e-014
lhumerus 53.7419 20.168 -5.22931
lradius 59.48
lwrist 36.4111
lhand -10.0932 19.1311
lfingers 7.12502
lthumb 15.8939 48.4988
rfemur -25.0153 6.94575 17.8504
rtibia 19.3303
rfoot -12.2997 -21.6934
rtoes 19.3798
lfemur -19.2802 -10.6091 -13.0695
ltibia 9.68913
lfoot -1.02027 12.5058
ltoes -0.63491
2927
root -0.0947393 18.362 0.562248 17.4748 4.68668 0.319969
lowerback 9.5424 -0.218985 2.86075
upperback -0.578109 0.314719 4.54975
thorax -5.98741 0.141852 3.12086
lowerneck -2.78662 -1.91174 1.32831
upperneck -22.9041 -4.08113 -7.53081
head -6.6768 -1.56102 -2.46539
rclavicle -7.95139e-016 3.65764e-014
rhumerus 29.4789 15.4875 18.9386
rradius 125.597
rwrist -19.8761
rhand 1.04799 13.1407
rfingers 7.12502
rthumb 26.5938 -15.0119
lclavicle -7.95139e-016 3.65764e-014
lhumerus 53.3668 19.6268 -6.10392
lradius 60.0603
lwrist 36.9647
lhand -10.3115 19.198
lfingers 7.12502
lthumb 15.6837 48.5824
rfemur -25.0164 7.04832 17.8955
rtibia 19.2902
rfoot -12.2904 -21.8433
rtoes 18.9869
lfemur -19.3195 -10.6095 -12.9966
ltibia 9.69955
lfoot -1.16304 12.5868
ltoes 0.191891
2928
root -0.0937818 18.3612 0.56429 17.5481 4.70245 0.322764
lowerback 9.51065 -0.214589 2.87314
upperback -0.585281 0.319831 4.53885
thorax -5.977 0.1438 3.10127
lowerneck -2.70814 -1.91123 1.40601
upperneck -22.995 -4.09888 -7.60175
head -6.72309 -1.56686 -2.50108
rclavicle -6.75868e-015 -1.74931e-014
rhumerus 29.175 14.3706 18.3873
rradius 125.479
rwrist -19.521
rhand 0.974579 13.318
rfingers 7.12502
rthumb 26.5235 -14.8453
lclavicle -6.75868e-015 -1.74931e-014
lhumerus 53.0474 19.1077 -6.88374
lradius 60.672
lwrist 37.4248
lhand -10.3949 19.1154
lfingers 7.12502
lthumb 15.6034 48.506
rfemur -25.0524 7.15534 17.8526
rtibia 19.2327
rfoot -12.4586 -21.8948
rtoes 19.45
lfemur -19.4397 -10.6013 -12.9881
ltibia 9.76094
lfoot -1.28849 12.6134
ltoes 0.599829
2929
root -0.0916529 18.3607 0.566502 17.6292 4.7254 0.255551
lowerback 9.46927 -0.208012 2.94557
upperback -0.594698 0.335446 4.54764
thorax -5.9638 0.149359 3.06705
lowerneck -2.62843 -1.8789 1.50588
upperneck -23.1112 -4.07321 -7.67592
head -6.77601 -1.55248 -2.54426
rclavicle -5.1684e-015 -3.49861e-014
rhumerus 28.9323 13.1326 17.792
rradius 125.353
rwrist -19.4127
rhand 1.27013 13.3979
rfingers 7.12502
rthumb 26.8064 -14.7223
lclavicle -5.1684e-015 -3.49861e-014
lhumerus 52.7861 18.6033 -7.5692
lradius 61.3048
lwrist 37.8767
lhand -9.98472 19.0367
lfingers 7.12502
lthumb 15.9984 48.3961
rfemur -25.095 7.18526 17.9093
rtibia 19.1696
rfoot -12.4368 -21.9457
rtoes 19.4335
lfemur -19.5686 -10.577 -12.9084
ltibia 9.84977
lfoot -1.19567 12.5679
ltoes -0.342
